<svg width="24" height="24" viewBox="0 0 24 24" fill="none" xmlns="http://www.w3.org/2000/svg">
<path d="M19 7H18.18L16.83 2.4C16.66 1.84 16.11 1.5 15.52 1.5H8.48C7.89 1.5 7.34 1.84 7.17 2.4L5.82 7H5C3.34 7 2 8.34 2 10V19C2 20.66 3.34 22 5 22H19C20.66 22 22 20.66 22 19V10C22 8.34 20.66 7 19 7ZM8.82 3.5H15.18L16.1 7H7.9L8.82 3.5ZM20 19C20 19.55 19.55 20 19 20H5C4.45 20 4 19.55 4 19V10C4 9.45 4.45 9 5 9H19C19.55 9 20 9.45 20 10V19ZM12 11C9.79 11 8 12.79 8 15C8 17.21 9.79 19 12 19C14.21 19 16 17.21 16 15C16 12.79 14.21 11 12 11ZM12 17C10.9 17 10 16.1 10 15C10 13.9 10.9 13 12 13C13.1 13 14 13.9 14 15C14 16.1 13.1 17 12 17Z" fill="white"/>
</svg>
