<svg width="24" height="24" viewBox="0 0 24 24" fill="none" xmlns="http://www.w3.org/2000/svg">
<path d="M17 10H20L14 21V14H11L14 3V10H17ZM1.27 4.27L2.18 3.36L5.45 6.63C5.31 6.85 5.2 7.09 5.11 7.34C4.65 8.62 4.67 10.03 5.18 11.3L6.68 14.47C7.38 16.05 9.23 16.81 10.82 16.11C10.96 16.05 11.09 15.98 11.21 15.9L19.73 24.42L20.64 23.51L1.27 4.27ZM10.18 13.18C9.64 13.42 9 13.19 8.76 12.64L7.26 9.47C7.02 8.93 7.25 8.29 7.8 8.05C8.34 7.81 8.98 8.04 9.22 8.59L10.72 11.76C10.96 12.3 10.73 12.94 10.18 13.18ZM14.77 11.73L15.96 14.08L17.46 10.91C17.7 10.37 17.47 9.73 16.92 9.49C16.37 9.25 15.73 9.48 15.49 10.03L14.77 11.73Z" fill="white"/>
</svg>
